<svg width="60" height="60" viewBox="0 0 60 60" fill="none" xmlns="http://www.w3.org/2000/svg">
<path d="M0 30V3.33333C0 2.38889 0.32 1.59667 0.96 0.956667C1.59778 0.318889 2.38889 0 3.33333 0H23.3333C24.2778 0 25.07 0.318889 25.71 0.956667C26.3478 1.59667 26.6667 2.38889 26.6667 3.33333V30C26.6667 30.9444 26.3478 31.7356 25.71 32.3733C25.07 33.0133 24.2778 33.3333 23.3333 33.3333H3.33333C2.38889 33.3333 1.59778 33.0133 0.96 32.3733C0.32 31.7356 0 30.9444 0 30Z" fill="#D86161"/>
<path d="M33.3333 16.6667V3.33333C33.3333 2.38889 33.6533 1.59667 34.2933 0.956666C34.931 0.318889 35.7221 0 36.6666 0H56.6666C57.611 0 58.4021 0.318889 59.0399 0.956666C59.6799 1.59667 59.9999 2.38889 59.9999 3.33333V16.6667C59.9999 17.6111 59.6799 18.4022 59.0399 19.04C58.4021 19.68 57.611 20 56.6666 20H36.6666C35.7221 20 34.931 19.68 34.2933 19.04C33.6533 18.4022 33.3333 17.6111 33.3333 16.6667Z" fill="#C7D861"/>
<path d="M33.3333 56.6665V29.9998C33.3333 29.0554 33.6533 28.2632 34.2933 27.6232C34.931 26.9854 35.7221 26.6665 36.6666 26.6665H56.6666C57.611 26.6665 58.4021 26.9854 59.0399 27.6232C59.6799 28.2632 59.9999 29.0554 59.9999 29.9998V56.6665C59.9999 57.611 59.6799 58.4021 59.0399 59.0398C58.4021 59.6798 57.611 59.9998 56.6666 59.9998H36.6666C35.7221 59.9998 34.931 59.6798 34.2933 59.0398C33.6533 58.4021 33.3333 57.611 33.3333 56.6665Z" fill="#84B0C9"/>
<path d="M0 56.6667V43.3333C0 42.3889 0.32 41.5967 0.96 40.9567C1.59778 40.3189 2.38889 40 3.33333 40H23.3333C24.2778 40 25.07 40.3189 25.71 40.9567C26.3478 41.5967 26.6667 42.3889 26.6667 43.3333V56.6667C26.6667 57.6111 26.3478 58.4022 25.71 59.04C25.07 59.68 24.2778 60 23.3333 60H3.33333C2.38889 60 1.59778 59.68 0.96 59.04C0.32 58.4022 0 57.6111 0 56.6667Z" fill="#61ADD8"/>
</svg>
