<svg width="178" height="36" viewBox="0 0 178 36" fill="none" xmlns="http://www.w3.org/2000/svg">
<path d="M0 0V14.3891H16.6534V10.7918H5.61125V8.81911H16.2726V5.31854H5.61125V3.51991H16.4931V0H0Z" fill="#02101A"/>
<path d="M25.0109 14.3891L29.1392 9.88282L33.3076 14.3891H40.3016L33.548 6.94312L40.001 0H33.2474L29.4398 4.23549L25.6522 0H18.3776L24.9909 7.00114L18.1572 14.3891H25.0109Z" fill="#02101A"/>
<path d="M47.8411 14.3891H53.5325V3.92605H59.9654V0H41.4082V3.92605H47.8411V14.3891Z" fill="#02101A"/>
<path d="M68.133 3.50057H74.6661C75.9487 3.50057 76.3896 4.04209 76.3896 4.719V4.73834C76.3896 5.43459 75.9286 5.97611 74.6661 5.97611H68.133V3.50057ZM68.133 9.45734H73.5839C75.8284 9.45734 76.61 10.3083 76.61 11.9522V13.6348C76.61 14.041 76.6501 14.2344 76.7904 14.3891H82.602V14.2924C82.4617 14.041 82.3215 13.6735 82.3215 12.6678V10.5404C82.3215 8.68373 81.099 7.52332 79.2553 7.11718C80.3776 6.86576 82.2613 5.99545 82.2613 3.90671V3.69397C82.2613 1.35381 80.3375 0 75.9888 0H62.4416V14.3891H68.133V9.45734Z" fill="#02101A"/>
<path d="M103.5 14.3891H109.051V5.41524L114.262 14.3891H117.167L122.398 5.41524V14.3891H128.029V0H120.534L115.885 8.08419L111.316 0H103.5V14.3891Z" fill="#02101A"/>
<path d="M130.194 6.86576C130.194 9.65074 131.416 14.6212 140.094 14.6212H140.895C149.332 14.6212 150.715 9.65074 150.715 6.86576V0H145.024V6.44027C145.024 8.20023 144.182 10.3083 140.474 10.3083C136.707 10.3083 135.905 8.20023 135.905 6.44027V0H130.194V6.86576Z" fill="#02101A"/>
<path d="M153.471 14.3891H159.022V5.41524L164.232 14.3891H167.138L172.369 5.41524V14.3891H178V0H170.505L165.856 8.08419L161.286 0H153.471V14.3891Z" fill="#02101A"/>
<path d="M0 35.7292H10.6013C19.4791 35.7292 21.3428 31.9966 21.3428 28.7281V28.1479C21.3428 24.7634 19.1785 21.3402 10.5812 21.3402H0V35.7292ZM5.69141 25.1115H9.91989C14.8899 25.1115 15.4309 27.1809 15.4309 28.438V28.554C15.4309 29.8112 14.8899 31.9192 9.91989 31.9192H5.69141V25.1115Z" fill="#02101A"/>
<path d="M29.3751 21.3402H23.7038V35.7292H29.3751V21.3402Z" fill="#02101A"/>
<path d="M42.3192 36C46.9685 36 48.8323 34.3561 49.4134 33.7372C49.694 34.2594 50.0146 35.2651 50.1148 35.7292H53.702V27.6257H42.6599V30.43H47.8904C47.8904 30.8942 46.6479 32.2287 42.8002 32.2287C39.1128 32.2287 37.6899 30.43 37.6899 28.5927V28.38C37.6899 26.4846 38.8322 24.8214 42.8403 24.8214C47.0487 24.8214 47.5697 26.2719 47.6699 26.6394H53.6018V26.62C53.5217 24.6086 52.2792 21.0694 43.1409 21.0694H42.3593C33.5617 21.0694 31.7981 25.1115 31.7981 28.2059V28.7474C31.7981 31.7838 33.7019 36 41.8583 36H42.3192Z" fill="#02101A"/>
<path d="M62.2027 21.3402H56.5313V35.7292H62.2027V21.3402Z" fill="#02101A"/>
<path d="M71.0986 35.7292H76.7901V25.2662H83.223V21.3402H64.6657V25.2662H71.0986V35.7292Z" fill="#02101A"/>
<path d="M94.9904 29.8112H90.0405L92.4854 24.8601L94.9904 29.8112ZM97.9764 35.7292H104.209L96.4133 21.3402H88.758L81.3832 35.7292H87.1547L88.297 33.4084H96.8141L97.9764 35.7292Z" fill="#02101A"/>
<path d="M105.861 21.3402V35.7292H121.893V31.6098H111.552V21.3402H105.861Z" fill="#02101A"/>
<path d="M178 35.6443V31.5H172.369V35.6443H178Z" fill="#02101A"/>
<path d="M85 0V14.3891H101.653V10.7918H90.6113V8.81911H101.273V5.31854H90.6113V3.51991H101.493V0H85Z" fill="#02101A"/>
</svg>
