<svg width="17" height="20" viewBox="0 0 17 20" fill="none" xmlns="http://www.w3.org/2000/svg">
<path fill-rule="evenodd" clip-rule="evenodd" d="M15.8381 7.02561C16.0708 7.02292 16.3242 7.02 16.5545 7.02C16.802 7.02 17 7.22 17 7.47V15.51C17 17.99 15.0099 20 12.5446 20H4.67327C2.09901 20 0 17.89 0 15.29V4.51C0 2.03 2 0 4.46535 0H9.75247C10.0099 0 10.2079 0.21 10.2079 0.46V3.68C10.2079 5.51 11.703 7.01 13.5149 7.02C13.9381 7.02 14.3112 7.02316 14.6377 7.02593C14.8917 7.02809 15.1175 7.03 15.3168 7.03C15.4578 7.03 15.6405 7.02789 15.8381 7.02561ZM9.04951 11.73H10.7624C11.1683 11.73 11.505 11.4 11.505 10.99C11.505 10.57 11.1683 10.24 10.7624 10.24H9.04951V8.51C9.04951 8.1 8.72277 7.77 8.31683 7.77C7.91089 7.77 7.57426 8.1 7.57426 8.51V10.24H5.87129C5.46535 10.24 5.12871 10.57 5.12871 10.99C5.12871 11.4 5.46535 11.73 5.87129 11.73H7.57426V13.46C7.57426 13.87 7.91089 14.2 8.31683 14.2C8.72277 14.2 9.04951 13.87 9.04951 13.46V11.73Z" fill="#BDC4D7"/>
<path d="M16.11 5.5662C15.2961 5.5692 14.3367 5.5662 13.6466 5.5592C12.5516 5.5592 11.6496 4.6482 11.6496 3.5422V0.9062C11.6496 0.4752 12.1674 0.2612 12.4635 0.5722C12.9995 1.1351 13.7361 1.90891 14.4693 2.67913C15.2002 3.44689 15.9277 4.21108 16.4496 4.7592C16.7387 5.0622 16.5268 5.5652 16.11 5.5662Z" fill="#BDC4D7"/>
</svg>
