<svg width="21" height="24" viewBox="0 0 21 24" fill="none" xmlns="http://www.w3.org/2000/svg">
<path fill-rule="evenodd" clip-rule="evenodd" d="M16.252 6C16.2891 5.91495 16.3065 5.82227 16.3028 5.72919H16.3333C16.2029 2.52709 13.6324 0 10.5058 0C7.37916 0 4.80868 2.52709 4.6782 5.72919C4.66282 5.81877 4.66282 5.91042 4.6782 6H4.587C3.09192 6 1.49374 7.01516 1.02975 9.74409L0.122389 17.1777C-0.619994 22.6355 2.11239 24 5.67995 24H15.3516C18.9088 24 21.5587 22.0243 20.8988 17.1777L20.0018 9.74409C19.4553 7.09157 17.9086 6 16.4342 6H16.252ZM14.5754 6C14.5429 5.91353 14.5257 5.82183 14.5246 5.72919C14.5246 3.42819 12.7048 1.56286 10.46 1.56286C8.21525 1.56286 6.39548 3.42819 6.39548 5.72919C6.41086 5.81877 6.41086 5.91042 6.39548 6H14.5754ZM7.11316 12.1783C6.54371 12.1783 6.08208 11.6896 6.08208 11.0867C6.08208 10.4839 6.54371 9.99515 7.11316 9.99515C7.68262 9.99515 8.14425 10.4839 8.14425 11.0867C8.14425 11.6896 7.68262 12.1783 7.11316 12.1783ZM12.8357 11.0867C12.8357 11.6896 13.2973 12.1783 13.8668 12.1783C14.4362 12.1783 14.8979 11.6896 14.8979 11.0867C14.8979 10.4839 14.4362 9.99515 13.8668 9.99515C13.2973 9.99515 12.8357 10.4839 12.8357 11.0867Z" fill="#200E32"/>
</svg>
